<svg width="112" height="112" viewBox="0 0 112 112" fill="none"
  xmlns="http://www.w3.org/2000/svg">
  <rect width="112" height="112" rx="56" fill="#285AA6"/>
  <g clip-path="url(#clip0)">
    <path d="M103.881 23.1238C103.881 23.1238 103.662 24.994 103.292 27.9784C78.729 22.9078 58.5178 41.6661 56.0611 44.0639C54.9591 42.9816 48.3349 36.701 38.4834 32.0796C38.1316 31.9159 37.7765 31.7523 37.4182 31.5887L36.8758 31.3433C36.5126 31.1797 36.146 31.0242 35.7763 30.877H35.7615C35.395 30.7264 35.0252 30.5792 34.6522 30.4352L34.1613 30.2462L33.4717 30.0008L32.7967 29.7553C32.2666 29.5713 31.7316 29.397 31.1892 29.2277L30.3793 28.9822C30.1224 28.907 29.8647 28.8333 29.6061 28.7614C23.2716 26.9943 16.1419 26.3071 8.59979 27.8827C8.22673 24.8909 8.0083 23.0158 8.0083 23.0158C33.4447 17.3709 54.3602 37.4766 56.0071 39.1087C58.346 36.7992 78.94 17.5722 103.881 23.1238Z" fill="white"/>
    <path d="M103.912 31.7903C103.703 31.7437 103.494 31.6995 103.288 31.6602C78.6692 26.6338 58.4359 45.5172 56.1191 47.7899L56.0602 47.7335C54.9582 46.6511 48.334 40.3705 38.4825 35.7491C38.1307 35.5855 37.7756 35.4218 37.4173 35.2582L36.8749 35.0128C36.5117 34.8492 36.1452 34.6937 35.7754 34.5465H35.7607C35.3941 34.3959 35.0244 34.2487 34.6513 34.1047L34.1605 33.9157L33.4708 33.6703L32.7959 33.4249C32.2657 33.2408 31.7307 33.0665 31.1883 32.8972L30.3784 32.6517C30.1215 32.5765 29.8638 32.5028 29.6053 32.4309C23.2658 30.6785 16.1385 30.0158 8.60382 31.5988L8.12769 31.7019C8.12769 31.7019 13.0363 73.6706 15.736 77.1066C16.3201 77.8429 18.4775 78.9817 21.5159 80.28L22.1344 80.5402L22.505 80.6923L22.8805 80.8445L23.6462 81.1513L24.4905 81.4826L25.6367 81.9219C26.238 82.1477 26.8638 82.3784 27.4848 82.6067L28.5057 82.9748L29.3893 83.2865C31.2374 83.932 33.1689 84.5775 35.1078 85.1911L35.5987 85.3432L35.903 85.4389L36.2491 85.5469L36.9363 85.758L37.6333 85.9691L38.3107 86.1728L39.0077 86.3789C40.1784 86.7226 41.3344 87.049 42.4609 87.3607H42.483L43.396 87.6061C48.4371 88.9314 52.7616 89.7512 54.8698 89.5499V89.5106C54.911 89.2155 54.9315 88.9178 54.9312 88.6197C54.9323 87.1402 54.4284 85.7047 53.5028 84.5505C53.4635 84.4989 53.4218 84.4474 53.3801 84.3983C52.2656 83.0874 50.827 82.0914 49.2078 81.5096L39.5746 78.0417C39.4636 78.0005 39.3554 77.9521 39.2507 77.8969L27.4381 71.5427C27.0524 71.3352 26.73 71.0271 26.5053 70.6512C26.2806 70.2752 26.1619 69.8454 26.1619 69.4074C26.1619 69.2432 26.227 69.0856 26.3429 68.9692C26.4588 68.8528 26.6161 68.7871 26.7804 68.7865C26.8224 68.7857 26.8644 68.7898 26.9055 68.7988C27.226 68.8629 27.5369 68.9676 27.8308 69.1105L41.6657 75.9113C41.7975 75.976 41.948 75.9917 42.0903 75.9555C42.2915 75.9067 42.4781 75.8107 42.6346 75.6753C42.7912 75.5399 42.9132 75.3691 42.9905 75.1771C43.0677 74.985 43.0981 74.7774 43.079 74.5713C43.0599 74.3652 42.9919 74.1666 42.8806 73.9921L42.7088 73.7172C42.6432 73.6075 42.5443 73.5215 42.4265 73.4718L33.056 69.3289C32.3877 69.0328 31.7435 68.6849 31.1294 68.2883L24.2893 63.8705C23.8724 63.5927 23.5158 63.2337 23.2409 62.815C22.9659 62.3962 22.7782 61.9263 22.6891 61.4334L22.5246 60.54C22.508 60.4501 22.5115 60.3576 22.5347 60.2691C22.5579 60.1806 22.6002 60.0983 22.6588 60.028C22.7174 59.9578 22.7907 59.9012 22.8735 59.8625C22.9564 59.8237 23.0467 59.8037 23.1382 59.8037C23.2646 59.803 23.3881 59.8415 23.4916 59.9142L31.9982 65.8045C32.3485 66.0475 32.7123 66.2704 33.0879 66.4721C35.0023 67.4955 41.3908 70.934 43.2806 71.5868C44.2231 71.9108 44.6771 71.9673 45.0845 71.9182C45.2191 71.9009 45.3485 71.8552 45.4641 71.7841C45.5797 71.713 45.6788 71.6181 45.7549 71.5058C45.8311 71.3935 45.8824 71.2662 45.9056 71.1325C45.9289 70.9988 45.9234 70.8617 45.8896 70.7303C45.7836 70.3066 45.5842 69.9119 45.3061 69.5752C45.0279 69.2385 44.678 68.9681 44.282 68.784L32.7468 63.4091C31.799 62.9692 30.8999 62.4312 30.0642 61.804L24.1739 57.3862C22.4271 56.0763 21.0302 54.3557 20.1071 52.377C20.0124 52.1751 19.9744 51.9512 19.9973 51.7294C20.0202 51.5076 20.1032 51.2962 20.2372 51.1179C20.2951 51.0426 20.3694 50.9813 20.4544 50.9388C20.5395 50.8963 20.633 50.8736 20.7281 50.8725C20.8126 50.8725 20.8961 50.8901 20.9735 50.924C21.3865 51.1019 21.775 51.3321 22.1295 51.6088C22.4836 51.8869 22.7997 52.2104 23.0695 52.5709L24.3948 54.3355C24.4322 54.3868 24.4778 54.4316 24.5298 54.4681L30.7269 58.9226C31.7779 59.6753 32.8941 60.3324 34.0623 60.8861L45.2563 66.1776C45.4462 66.2722 45.6546 66.3239 45.8666 66.329C46.0787 66.3341 46.2893 66.2924 46.4835 66.207C46.7854 66.0671 47.0308 65.5763 47.0406 65.2081C47.0578 64.4718 46.0589 63.4901 45.1901 63.1956L39.2531 60.918C38.2175 60.5129 37.2182 60.0203 36.2662 59.4454L30.398 55.9186C30.3556 55.897 30.3154 55.8715 30.2777 55.8425L27.3939 53.506C25.9282 52.3189 24.6643 50.9025 23.6511 49.3116C23.5876 49.2118 23.5536 49.0961 23.553 48.9778C23.5527 48.8814 23.5754 48.7863 23.6192 48.7004C23.7103 48.5183 23.8505 48.3652 24.024 48.2585C24.1974 48.1518 24.3973 48.0958 24.601 48.0967C24.8324 48.0962 25.0579 48.1702 25.244 48.3078L26.0024 48.8624C26.0272 48.8816 26.051 48.902 26.0735 48.9238C26.6184 49.4686 34.2365 56.9322 46.535 60.5498C49.6674 61.5187 52.8666 62.257 56.1068 62.7587C66.6603 64.4767 69.6521 59.9878 73.6551 56.5002C77.4592 53.1869 82.2451 54.0459 82.4905 54.7822C82.628 55.197 81.1358 56.3088 79.7908 57.2046C78.4731 58.0904 77.4069 59.302 76.6959 60.7216L74.4085 65.2965C74.0723 65.969 73.5593 69.324 73.2943 70.0946L73.2722 70.1486L69.2864 78.9669C69.2505 79.0439 69.2313 79.1275 69.2299 79.2124L69.1171 82.5723L68.9943 86.2759C68.9923 86.3918 69.021 86.5061 69.0778 86.6072L69.5686 87.449L69.5956 87.4957C80.6964 84.4965 94.7596 79.2885 96.3917 77.2146C99.0914 73.7786 104 31.8099 104 31.8099L103.912 31.7903Z" fill="white"/>
  </g>
  <defs>
    <clipPath id="clip0">
      <rect width="96" height="67.5744" fill="white" transform="translate(8 22)"/>
    </clipPath>
  </defs>
</svg>
